#!OML:ASF H:\LiuWeirdWalks\Patient Classification 1\Patient 1\Session 1\male.ASF
:FULLY-SPECIFIED
:DEGREES
490
root 0.0574367 16.4832 7.78684 5.37774 -0.810705 -4.72549
lowerback 20.6986 1.56572 -3.87915
upperback 1.50005 1.23778 0.758269
thorax -10.0722 0.775569 2.69425
lowerneck -16.7184 1.82963 5.93996
upperneck 16.1451 1.38824 -1.98544
head 7.7996 0.83303 -1.47044
rclavicle -4.57205e-015 4.77083e-015
rhumerus -38.807 3.15685 -78.9208
rradius 39.2543
rwrist -5.65033
rhand -16.5585 -0.636017
rfingers 7.12502
rthumb 9.66135 -30.3945
lclavicle -4.57205e-015 4.77083e-015
lhumerus -26.6991 2.14435 76.1709
lradius 45.7978
lwrist 1.30723
lhand -22.2977 -18.7084
lfingers 7.12502
lthumb 4.12133 11.2315
rfemur -22.2519 -10.3779 18.1117
rtibia 87.023
rfoot -20.7666 -24.2266
rtoes -7.98755
lfemur -40.522 7.53665 -24.5444
ltibia 61.1284
lfoot -10.7002 22.5148
ltoes 42.2819
491
root 0.0690286 16.4987 7.89916 5.40394 -0.682078 -4.29683
lowerback 20.8649 1.43233 -4.1997
upperback 1.57888 0.977901 0.718252
thorax -10.0599 0.664696 2.90889
lowerneck -16.6578 1.88695 6.03862
upperneck 15.8372 1.48717 -2.20543
head 7.69313 0.860751 -1.54718
rclavicle -1.45113e-014 6.36111e-015
rhumerus -38.9923 3.57333 -79.02
rradius 39.5704
rwrist -5.33862
rhand -16.6931 -0.514728
rfingers 7.12502
rthumb 9.53146 -30.2791
lclavicle -1.45113e-014 6.36111e-015
lhumerus -25.4886 0.932221 77.0855
lradius 46.0547
lwrist 0.983589
lhand -22.4771 -18.808
lfingers 7.12502
lthumb 3.94809 11.1352
rfemur -24.4126 -10.3188 18.3141
rtibia 86.1616
rfoot -21.0944 -24.1355
rtoes -8.09847
lfemur -39.9393 7.67251 -25.0036
ltibia 60.9086
lfoot -11.1827 22.2027
ltoes 42.4655
492
root 0.0774498 16.5144 8.01235 5.39309 -0.510958 -3.89651
lowerback 21.0507 1.30967 -4.53662
upperback 1.66912 0.729279 0.701108
thorax -10.0443 0.560033 3.15566
lowerneck -16.6029 1.9309 6.13243
upperneck 15.5276 1.56833 -2.42883
head 7.58688 0.879748 -1.62615
rclavicle 6.16232e-015 -1.66979e-014
rhumerus -39.1831 3.87056 -79.0628
rradius 39.9132
rwrist -5.08559
rhand -16.8947 -0.415504
rfingers 7.12502
rthumb 9.3369 -30.1887
lclavicle 6.16232e-015 -1.66979e-014
lhumerus -24.2618 -0.197552 77.9473
lradius 46.3399
lwrist 0.953919
lhand -22.6784 -18.8246
lfingers 7.12502
lthumb 3.75368 11.1221
rfemur -26.4101 -10.2751 18.5035
rtibia 85.2392
rfoot -21.5518 -24.0052
rtoes -8.67599
lfemur -39.3046 7.84307 -25.4123
ltibia 60.6779
lfoot -11.7008 21.8317
ltoes 42.6322
493
root 0.0829032 16.5301 8.12657 5.35158 -0.293669 -3.5236
lowerback 21.2527 1.19475 -4.88499
upperback 1.76689 0.488634 0.702715
thorax -10.0268 0.459741 3.42832
lowerneck -16.5557 1.96215 6.22229
upperneck 15.2316 1.63067 -2.64658
head 7.48616 0.890597 -1.70463
rclavicle -1.88845e-014 -7.15625e-015
rhumerus -39.3739 4.03806 -79.0513
rradius 40.2608
rwrist -4.93455
rhand -17.1118 -0.33693
rfingers 7.12502
rthumb 9.12749 -30.1194
lclavicle -1.88845e-014 -7.15625e-015
lhumerus -23.0151 -1.24576 78.7559
lradius 46.6262
lwrist 1.15004
lhand -22.8776 -18.7807
lfingers 7.12502
lthumb 3.56132 11.1693
rfemur -28.2526 -10.2526 18.6786
rtibia 84.275
rfoot -22.0429 -23.8263
rtoes -9.40113
lfemur -38.6274 8.04021 -25.7669
ltibia 60.4422
lfoot -12.2566 21.3892
ltoes 42.777
494
root 0.0857432 16.5453 8.24186 5.29568 -0.0298216 -3.17671
lowerback 21.4583 1.08454 -5.23679
upperback 1.86484 0.25367 0.717672
thorax -10.0084 0.36237 3.71706
lowerneck -16.5198 1.97998 6.30452
upperneck 14.9687 1.67189 -2.84631
head 7.39753 0.893262 -1.77826
rclavicle -4.96962e-015 3.18055e-015
rhumerus -39.5623 4.07228 -78.9911
rradius 40.5942
rwrist -4.91309
rhand -17.3059 -0.274069
rfingers 7.12502
rthumb 8.9402 -30.0647
lclavicle -4.96962e-015 3.18055e-015
lhumerus -21.7489 -2.21445 79.5115
lradius 46.8928
lwrist 1.48262
lhand -23.0517 -18.6984
lfingers 7.12502
lthumb 3.39315 11.2543
rfemur -29.9657 -10.2503 18.8386
rtibia 83.29
rfoot -22.4874 -23.6034
rtoes -10.0544
lfemur -37.9293 8.25264 -26.0669
ltibia 60.2085
lfoot -12.8439 20.8671
ltoes 42.8987
495
root 0.08636 16.5599 8.35817 5.24599 0.277299 -2.85065
lowerback 21.6526 0.977159 -5.58738
upperback 1.95286 0.0229756 0.739578
thorax -9.99177 0.267189 4.01248
lowerneck -16.4932 1.98392 6.37611
upperneck 14.7513 1.6909 -3.01844
head 7.32434 0.887985 -1.8436
rclavicle 9.93923e-015 3.18055e-015
rhumerus -39.7515 3.97995 -78.8904
rradius 40.9019
rwrist -5.03525
rhand -17.4497 -0.232968
rfingers 7.12502
rthumb 8.8014 -30.0294
lclavicle 9.93923e-015 3.18055e-015
lhumerus -20.4665 -3.10743 80.2162
lradius 47.1228
lwrist 1.86346
lhand -23.1827 -18.5997
lfingers 7.12502
lthumb 3.26669 11.355
rfemur -31.5839 -10.2625 18.9785
rtibia 82.3055
rfoot -22.8206 -23.3545
rtoes -10.4722
lfemur -37.2383 8.46784 -26.3194
ltibia 59.9834
lfoot -13.4467 20.2651
ltoes 42.9993
496
root 0.0850809 16.5737 8.47542 5.22014 0.624428 -2.53773
lowerback 21.821 0.870584 -5.93578
upperback 2.02319 -0.205791 0.761984
thorax -9.97759 0.173139 4.30734
lowerneck -16.4691 1.97335 6.43473
upperneck 14.5807 1.68683 -3.15549
head 7.26558 0.874863 -1.89797
rclavicle 5.56597e-015 -1.19271e-014
rhumerus -39.9441 3.77551 -78.7605
rradius 41.1768
rwrist -5.29754
rhand -17.5327 -0.219948
rfingers 7.12502
rthumb 8.72126 -30.0198
lclavicle 5.56597e-015 -1.19271e-014
lhumerus -19.1742 -3.93068 80.8734
lradius 47.3074
lwrist 2.22001
lhand -23.2634 -18.501
lfingers 7.12502
lthumb 3.18875 11.4549
rfemur -33.1383 -10.282 19.0902
rtibia 81.3395
rfoot -23.0275 -23.0818
rtoes -10.6349
lfemur -36.5792 8.67315 -26.536
ltibia 59.7729
lfoot -14.0406 19.5907
ltoes 43.09
